# xmcd
#
# Track frame offsets:
#	150
#	16889
#	34698
#	50587
#	70416
#	83162
#	101799
#	118356
#	137550
#	153964
#	169972
#	184450
#	195274
#	207268
#	221997
#	237161
#	254660
#	270664
#
# Disc length: 3828 seconds
#
# Revision: 3
# Processed by: cddbd v1.5.2PL0 Copyright (c) Steve Scherf et al.
# Submitted via: dBpowerAMP V4.0
#
DISCID=100ef212
DTITLE=Various Artist - R&B Christmas
DYEAR=1997
DGENRE=X-mas
TTITLE0=Soul Made Featuring Lynn and Burney-/ Last Christmas
TTITLE1=Pulse In Corperate-/ White Christmas
TTITLE2=Soul Made-/ First Noel
TTITLE3=Peter Sanders-/ Thank God It's Christmas
TTITLE4=Earl Ray Micheals-/ Driving Home For Christmas
TTITLE5=Anna Gram and Mack Full-/ Do You Hear What I Hear
TTITLE6=Twinkle B.-/ When A Child Is Born
TTITLE7=Duke Of Music-/ The Power Of Love
TTITLE8=Joshua-/ Lonely This Christmas
TTITLE9=Jay 'S' Mitchel-/ I Still Believe In Santa Claus
TTITLE10=Cindy R. Alla-/ Mary's Boy Child
TTITLE11=Deli Kate-/ Silent Night
TTITLE12=Mary White-/ Please Come Home For Christmas
TTITLE13=Richard Flint-/ Jingle Bells
TTITLE14=Natha Lee-/ The Christmas Song (Chestnuts)
TTITLE15=Leroy King-/ My Gift To You
TTITLE16=Eva Stanley-/ Have Yourself A Merry Little Christmas
TTITLE17=Julian Mc Neal-/ Happy Christmas (War Is Over)
EXTD=
EXTT0=
EXTT1=
EXTT2=
EXTT3=
EXTT4=
EXTT5=
EXTT6=
EXTT7=
EXTT8=
EXTT9=
EXTT10=
EXTT11=
EXTT12=
EXTT13=
EXTT14=
EXTT15=
EXTT16=
EXTT17=
PLAYORDER=
